<svg xmlns="http://www.w3.org/2000/svg" viewBox="0 0 168.02 44.19"><defs><style>.cls-1{fill:#20201f;}.cls-2{fill:#fddc18;}</style></defs><title>resto</title><g id="Layer_2" data-name="Layer 2"><g id="Layer_1-2" data-name="Layer 1"><rect class="cls-1" y="4.42" width="17.68" height="17.68" rx="8.84"/><rect class="cls-1" y="26.51" width="17.68" height="17.68" rx="8.84"/><rect class="cls-1" x="22.09" width="17.68" height="17.68" rx="8.84"/><rect class="cls-2" x="22.09" y="22.09" width="17.68" height="17.68" rx="8.84"/><path class="cls-1" d="M54.06,3.74H64.78a9.5,9.5,0,0,1,6.56,2.1,7.71,7.71,0,0,1,2.35,6.07,8.27,8.27,0,0,1-1.27,4.68,7.26,7.26,0,0,1-3.61,2.82l4.71,9.05H68l-4.35-8.38H59.44v8.38H54.06Zm9.76,11.85a5.3,5.3,0,0,0,3.24-.89,3.26,3.26,0,0,0,1.19-2.79,3.25,3.25,0,0,0-1.17-2.85,5.57,5.57,0,0,0-3.26-.83H59.44v7.36Z"/><path class="cls-1" d="M78.49,3.74H95.65V8.23H83.87V14h8.67v4.31H83.87V24H95.65v4.49H78.49Z"/><path class="cls-1" d="M103.08,28.57a14.53,14.53,0,0,1-3.64-1.13V22.7a18.21,18.21,0,0,0,3.89,1.38,17.79,17.79,0,0,0,3.86.46,5.66,5.66,0,0,0,3.11-.71,2.24,2.24,0,0,0,1.06-2,2.38,2.38,0,0,0-.53-1.56,4.83,4.83,0,0,0-1.54-1.15c-.67-.34-1.7-.79-3.09-1.36a13.41,13.41,0,0,1-5-3.17,6.3,6.3,0,0,1-1.55-4.33,6.26,6.26,0,0,1,1.13-3.7,7.34,7.34,0,0,1,3.18-2.49,11.89,11.89,0,0,1,4.74-.88,18.92,18.92,0,0,1,3.89.35,15.66,15.66,0,0,1,3.33,1.1V9.25a13.92,13.92,0,0,0-6.23-1.55,6,6,0,0,0-3.11.69,2.18,2.18,0,0,0-1.13,2,2.19,2.19,0,0,0,.53,1.52,4.55,4.55,0,0,0,1.48,1.06q1,.46,3.12,1.35a22.07,22.07,0,0,1,3.92,2,6.22,6.22,0,0,1,2.09,2.3,7.19,7.19,0,0,1,.67,3.27,6.26,6.26,0,0,1-2.42,5.24Q112.38,29,107.58,29A24.31,24.31,0,0,1,103.08,28.57Z"/><path class="cls-1" d="M127,8.23h-7.21V3.74h19.81V8.23h-7.22V28.46H127Z"/><path class="cls-1" d="M148.13,27.37a12,12,0,0,1-4.76-4.55,12.84,12.84,0,0,1-1.73-6.7,12.89,12.89,0,0,1,1.73-6.72,12,12,0,0,1,4.76-4.57,14.75,14.75,0,0,1,13.44,0,12.19,12.19,0,0,1,4.72,4.57A13,13,0,0,1,168,16.12a12.93,12.93,0,0,1-1.73,6.7,12.21,12.21,0,0,1-4.72,4.55,14.75,14.75,0,0,1-13.44,0Zm10.61-4.3a7.2,7.2,0,0,0,2.77-2.76,8.21,8.21,0,0,0,1-4.19,8.35,8.35,0,0,0-1-4.16,7,7,0,0,0-2.76-2.76,7.87,7.87,0,0,0-3.91-1,8,8,0,0,0-3.94,1A7.23,7.23,0,0,0,148.14,12a8.25,8.25,0,0,0-1,4.16,8.31,8.31,0,0,0,1,4.19,7.21,7.21,0,0,0,2.8,2.76,8,8,0,0,0,3.92,1A7.84,7.84,0,0,0,158.74,23.07Z"/><path class="cls-1" d="M54.06,34.43h3.07A2.67,2.67,0,0,1,59,35a2.18,2.18,0,0,1,.65,1.71,2.21,2.21,0,0,1-.51,1.47,2.3,2.3,0,0,1-1.4.76l1.88,3.41H58.7L56.84,39H55v3.37h-.89ZM57,38.24a2,2,0,0,0,1.28-.38,1.69,1.69,0,0,0,0-2.33A2.11,2.11,0,0,0,57,35.18H55v3.06Z"/><path class="cls-1" d="M61.73,41.77a2.7,2.7,0,0,1-.84-2.12,2.94,2.94,0,0,1,.75-2.12,2.83,2.83,0,0,1,2.14-.79,3.17,3.17,0,0,1,1.57.36,2.37,2.37,0,0,1,1,1,3,3,0,0,1,.33,1.42V40H61.71a1.69,1.69,0,0,0,.69,1.39,2.85,2.85,0,0,0,1.74.47,5.19,5.19,0,0,0,1-.1,4.54,4.54,0,0,0,.92-.26v.74a4.29,4.29,0,0,1-.92.22,7.49,7.49,0,0,1-1.14.09A3.29,3.29,0,0,1,61.73,41.77Zm4.11-2.41A1.91,1.91,0,0,0,65.3,38a2.12,2.12,0,0,0-1.54-.51,1.86,1.86,0,0,0-2,1.91Z"/><path class="cls-1" d="M69.34,42.38a3.14,3.14,0,0,1-1-.38v-.74a3.63,3.63,0,0,0,1,.42,3.77,3.77,0,0,0,1.08.16,2,2,0,0,0,1-.2.67.67,0,0,0,.31-.59.79.79,0,0,0-.14-.49,1.18,1.18,0,0,0-.45-.31,9.8,9.8,0,0,0-1-.32,5.15,5.15,0,0,1-1-.38,1.47,1.47,0,0,1-.59-.5,1.38,1.38,0,0,1-.21-.78,1.26,1.26,0,0,1,.6-1.13,2.74,2.74,0,0,1,1.58-.4,5.4,5.4,0,0,1,1,.1,2.84,2.84,0,0,1,.78.27v.74a2.71,2.71,0,0,0-.79-.29,3.85,3.85,0,0,0-1-.11,2,2,0,0,0-1,.19.67.67,0,0,0-.35.63.75.75,0,0,0,.12.45,1,1,0,0,0,.45.29,9.26,9.26,0,0,0,1,.32,3.4,3.4,0,0,1,1.42.67,1.36,1.36,0,0,1,.4,1,1.29,1.29,0,0,1-.54,1.09,2.79,2.79,0,0,1-1.64.39A4.83,4.83,0,0,1,69.34,42.38Z"/><path class="cls-1" d="M75.25,42.08a1.78,1.78,0,0,1-.43-1.29V37.6H74v-.69h.85V35.28h.87v1.63h1.38v.69H75.69v3.21a1.14,1.14,0,0,0,.23.8,1.18,1.18,0,0,0,.83.23,1.46,1.46,0,0,0,.62-.14v.72a3.48,3.48,0,0,1-.93.11A1.55,1.55,0,0,1,75.25,42.08Z"/><path class="cls-1" d="M79.31,42a1.68,1.68,0,0,1-.58-1.36,1.74,1.74,0,0,1,.56-1.38,2.4,2.4,0,0,1,1.61-.48,3.94,3.94,0,0,1,2,.49V38.9a1.34,1.34,0,0,0-.42-1.09,2,2,0,0,0-1.32-.36,4.4,4.4,0,0,0-1.79.36v-.74a4.5,4.5,0,0,1,.87-.23,5,5,0,0,1,1-.1,2.71,2.71,0,0,1,1.92.59A2.1,2.1,0,0,1,83.81,39v3.41H83v-.7a2.58,2.58,0,0,1-2.12.87A2.3,2.3,0,0,1,79.31,42Zm2.88-.47a1.64,1.64,0,0,0,.74-.68V40a3.55,3.55,0,0,0-.88-.38,3.65,3.65,0,0,0-1-.12A1.79,1.79,0,0,0,80,39.8a1.1,1.1,0,0,0-.34.88q0,1.14,1.47,1.14A2.39,2.39,0,0,0,82.19,41.57Z"/><path class="cls-1" d="M86.43,41.94a2.13,2.13,0,0,1-.58-1.57V36.91h.87v3.5c0,1,.5,1.43,1.49,1.43a2.19,2.19,0,0,0,1.1-.27,2.56,2.56,0,0,0,.84-.86v-3.8H91v5.45h-.86v-.81a2.44,2.44,0,0,1-2.06,1A2.24,2.24,0,0,1,86.43,41.94Z"/><path class="cls-1" d="M93.18,36.91H94V38a2.67,2.67,0,0,1,2.47-1.07v.71c-1.32,0-2.13.43-2.44,1.3v3.44h-.88Z"/><path class="cls-1" d="M98,42a1.7,1.7,0,0,1-.57-1.36A1.74,1.74,0,0,1,98,39.3a2.38,2.38,0,0,1,1.61-.48,4,4,0,0,1,2,.49V38.9a1.34,1.34,0,0,0-.42-1.09,2,2,0,0,0-1.33-.36,4.39,4.39,0,0,0-1.78.36v-.74a4.38,4.38,0,0,1,.86-.23,5.06,5.06,0,0,1,1-.1,2.74,2.74,0,0,1,1.92.59,2.1,2.1,0,0,1,.62,1.62v3.41h-.81v-.7a2.61,2.61,0,0,1-2.13.87A2.33,2.33,0,0,1,98,42Zm2.89-.47a1.69,1.69,0,0,0,.74-.68V40a3.9,3.9,0,0,0-.88-.38,3.7,3.7,0,0,0-1-.12,1.75,1.75,0,0,0-1.12.29,1.1,1.1,0,0,0-.35.88c0,.76.5,1.14,1.48,1.14A2.39,2.39,0,0,0,100.92,41.57Z"/><path class="cls-1" d="M104.63,36.91h.85v.82a2.43,2.43,0,0,1,1-.75,3.17,3.17,0,0,1,1.23-.24,2.08,2.08,0,0,1,1.6.57,2.16,2.16,0,0,1,.53,1.52v3.53h-.88V38.91a1.54,1.54,0,0,0-.34-1.08,1.4,1.4,0,0,0-1.09-.38,2.28,2.28,0,0,0-2,1.13v3.78h-.88Z"/><path class="cls-1" d="M112.73,42.08a1.82,1.82,0,0,1-.43-1.29V37.6h-.85v-.69h.85V35.28h.88v1.63h1.37v.69h-1.37v3.21a1.09,1.09,0,0,0,.23.8,1.15,1.15,0,0,0,.82.23,1.5,1.5,0,0,0,.63-.14v.72a3.48,3.48,0,0,1-.93.11A1.56,1.56,0,0,1,112.73,42.08Z"/><path class="cls-1" d="M121.5,34.43h2.94a2.92,2.92,0,0,1,1.94.59,2.15,2.15,0,0,1,.7,1.75,2.13,2.13,0,0,1-.69,1.74,2.93,2.93,0,0,1-2,.58h-2.06v3.27h-.88Zm2.87,3.92a2.29,2.29,0,0,0,1.34-.35,1.42,1.42,0,0,0,.49-1.23,1.46,1.46,0,0,0-.49-1.25,2.29,2.29,0,0,0-1.34-.34h-2v3.17Z"/><path class="cls-1" d="M128.78,34h.88v8.38h-.88Z"/><path class="cls-1" d="M132.16,42a1.7,1.7,0,0,1-.57-1.36,1.74,1.74,0,0,1,.55-1.38,2.41,2.41,0,0,1,1.62-.48,4,4,0,0,1,2,.49V38.9a1.34,1.34,0,0,0-.42-1.09,2,2,0,0,0-1.33-.36,4.32,4.32,0,0,0-1.78.36v-.74a4.19,4.19,0,0,1,.86-.23,5.06,5.06,0,0,1,1-.1,2.74,2.74,0,0,1,1.92.59,2.13,2.13,0,0,1,.62,1.62v3.41h-.82v-.7a2.57,2.57,0,0,1-2.12.87A2.3,2.3,0,0,1,132.16,42Zm2.88-.47a1.71,1.71,0,0,0,.75-.68V40a3.9,3.9,0,0,0-.88-.38,3.73,3.73,0,0,0-1-.12,1.74,1.74,0,0,0-1.11.29,1.1,1.1,0,0,0-.35.88c0,.76.49,1.14,1.48,1.14A2.37,2.37,0,0,0,135,41.57Z"/><path class="cls-1" d="M139.3,42.08a1.82,1.82,0,0,1-.43-1.29V37.6H138v-.69h.85V35.28h.88v1.63h1.37v.69h-1.37v3.21a1.14,1.14,0,0,0,.22.8,1.19,1.19,0,0,0,.83.23,1.5,1.5,0,0,0,.63-.14v.72a3.48,3.48,0,0,1-.93.11A1.56,1.56,0,0,1,139.3,42.08Z"/><path class="cls-1" d="M143.3,37.6h-.85v-.69h.85v-1.2a1.76,1.76,0,0,1,.48-1.34,1.84,1.84,0,0,1,1.3-.45,3,3,0,0,1,.81.11v.74a1.52,1.52,0,0,0-.66-.15,1,1,0,0,0-.8.28,1.24,1.24,0,0,0-.26.86v1.15h1.39v.69h-1.39v4.76h-.87Z"/><path class="cls-1" d="M148.19,42.18a2.52,2.52,0,0,1-1.07-1,3,3,0,0,1-.38-1.53,3,3,0,0,1,.38-1.52,2.65,2.65,0,0,1,1.08-1,3.27,3.27,0,0,1,1.56-.37,3.33,3.33,0,0,1,1.56.37,2.63,2.63,0,0,1,1.07,1,2.91,2.91,0,0,1,.39,1.52,3,3,0,0,1-.38,1.53,2.58,2.58,0,0,1-1.07,1,3.7,3.7,0,0,1-3.14,0Zm3.13-.94a2.15,2.15,0,0,0,.58-1.59,2.21,2.21,0,0,0-.58-1.61,2.36,2.36,0,0,0-3.12,0,2.22,2.22,0,0,0-.59,1.61,2.15,2.15,0,0,0,.59,1.59,2.33,2.33,0,0,0,3.12,0Z"/><path class="cls-1" d="M154.7,36.91h.86V38A2.66,2.66,0,0,1,158,36.91v.71c-1.32,0-2.13.43-2.44,1.3v3.44h-.88Z"/><path class="cls-1" d="M159.72,36.91h.84v.86a2.37,2.37,0,0,1,1.94-1,2,2,0,0,1,1.06.24,1.3,1.3,0,0,1,.55.72A2.18,2.18,0,0,1,165,37a2.66,2.66,0,0,1,1.1-.24,1.81,1.81,0,0,1,1.42.5,2.16,2.16,0,0,1,.44,1.48v3.64h-.86V38.82a1.64,1.64,0,0,0-.27-1.07,1.2,1.2,0,0,0-.94-.3,2,2,0,0,0-1.62.87,2.21,2.21,0,0,1,0,.52v3.52h-.85V38.84a1.81,1.81,0,0,0-.25-1.07,1.11,1.11,0,0,0-.93-.32,2.1,2.1,0,0,0-1.72,1.09v3.82h-.86Z"/></g></g></svg>